<?xml version="1.0" encoding="UTF-8" standalone="no"?>
<!-- Created with Inkscape (http://www.inkscape.org/) -->

<svg
   xmlns:dc="http://purl.org/dc/elements/1.1/"
   xmlns:cc="http://creativecommons.org/ns#"
   xmlns:rdf="http://www.w3.org/1999/02/22-rdf-syntax-ns#"
   xmlns:svg="http://www.w3.org/2000/svg"
   xmlns="http://www.w3.org/2000/svg"
   xmlns:sodipodi="http://sodipodi.sourceforge.net/DTD/sodipodi-0.dtd"
   xmlns:inkscape="http://www.inkscape.org/namespaces/inkscape"
   id="svg3020"
   version="1.1"
   inkscape:version="0.48.4 r9939"
   width="463.93246"
   height="480.44916"
   xml:space="preserve"
   sodipodi:docname="abbbp-logo-black.svg"><metadata
     id="metadata3026"><rdf:RDF><cc:Work
         rdf:about=""><dc:format>image/svg+xml</dc:format><dc:type
           rdf:resource="http://purl.org/dc/dcmitype/StillImage" /><dc:title /></cc:Work></rdf:RDF></metadata><defs
     id="defs3024"><clipPath
       clipPathUnits="userSpaceOnUse"
       id="clipPath3036"><path
         d="m 0,566.93 566.929,0 L 566.929,0 0,0 0,566.93 z"
         id="path3038"
         inkscape:connector-curvature="0" /></clipPath></defs><sodipodi:namedview
     pagecolor="#ffffff"
     bordercolor="#666666"
     borderopacity="1"
     objecttolerance="10"
     gridtolerance="10"
     guidetolerance="10"
     inkscape:pageopacity="0"
     inkscape:pageshadow="2"
     inkscape:window-width="1440"
     inkscape:window-height="837"
     id="namedview3022"
     showgrid="false"
     inkscape:zoom="0.66604345"
     inkscape:cx="231.21553"
     inkscape:cy="225.21056"
     inkscape:window-x="-8"
     inkscape:window-y="-8"
     inkscape:window-maximized="1"
     inkscape:current-layer="g3028"
     fit-margin-top="0"
     fit-margin-left="0"
     fit-margin-right="0"
     fit-margin-bottom="0" /><g
     id="g3028"
     inkscape:groupmode="layer"
     inkscape:label="BBBluesPortugal Logo"
     transform="matrix(1.25,0,0,-1.25,-123.11509,609.56986)"><path
       d="m 98.492073,103.29656 371.145977,0 0,384.35933 -371.145977,0 0,-384.35933 z"
       style="fill:#231f20;fill-opacity:1;fill-rule:nonzero;stroke:none"
       id="path3030"
       inkscape:connector-curvature="0" /><g
       id="g3032"><g
         id="g3034"
         clip-path="url(#clipPath3036)"><g
           id="g3040"
           transform="translate(387.9199,293.4521)"><path
             d="M 0,0 C 0,14.664 11.888,26.552 26.552,26.552 41.216,26.552 53.104,14.664 53.104,0 53.104,-14.664 41.216,-26.552 26.552,-26.552 11.888,-26.552 0,-14.664 0,0 m -53.103,74.013 c 0,14.664 11.887,26.551 26.551,26.551 C -11.887,100.564 0,88.677 0,74.013 0,59.349 -11.887,47.461 -26.552,47.461 c -14.664,0 -26.551,11.888 -26.551,26.552 m -208.914,39.841 315.12,0 0,-5.669 -315.12,0 0,5.669 z m 0,-222.039 315.12,0 0,-5.67 -315.12,0 0,5.67 z m 0,74.013 315.12,0 0,-5.669 -315.12,0 0,5.669 z m 0,74.013 315.12,0 0,-5.669 -315.12,0 0,5.669 z M 0,148.026 c 0,14.664 11.888,26.552 26.552,26.552 14.664,0 26.552,-11.888 26.552,-26.552 0,-14.664 -11.888,-26.551 -26.552,-26.551 C 11.888,121.475 0,133.362 0,148.026"
             style="fill:#8bd6f5;fill-opacity:1;fill-rule:nonzero;stroke:none"
             id="path3042"
             inkscape:connector-curvature="0" /></g><g
           id="g3044"
           transform="translate(215.1328,133.4082)"><path
             d="m 0,0 c -1.332,-1.33 -3.478,-2.338 -5.83,-2.338 -2.163,0 -4.31,0.791 -5.881,2.332 -2.382,2.319 -2.714,5.51 -2.714,8.748 0,3.237 0.332,6.426 2.714,8.746 1.571,1.541 3.718,2.332 5.881,2.332 2.339,0 4.46,-0.912 5.802,-2.254 1.262,-1.295 2.07,-2.968 2.163,-5 l 0.026,-0.591 -3.771,0 -0.015,0.55 c -0.024,0.975 -0.396,1.817 -0.97,2.467 -0.681,0.754 -1.835,1.297 -3.235,1.297 -1.225,0 -2.419,-0.484 -3.279,-1.371 -1.472,-1.522 -1.555,-4.012 -1.555,-6.176 0,-2.166 0.083,-4.656 1.555,-6.179 0.86,-0.885 2.054,-1.37 3.279,-1.37 1.387,0 2.574,0.59 3.264,1.354 C -2,3.188 -1.621,4.113 -1.597,5.1 l 0.015,0.55 3.771,0 L 2.163,5.059 C 2.071,3.033 1.268,1.299 0,0 m 43.466,0.002 c -0.969,-0.969 -2.367,-1.766 -3.963,-2.129 l -1.445,-4.045 -2.287,0 0,4.033 c -1.495,0.323 -2.901,1.039 -4.016,2.133 -2.381,2.32 -2.713,5.51 -2.713,8.748 0,3.237 0.332,6.428 2.713,8.746 1.572,1.541 3.719,2.332 5.881,2.332 2.34,0 4.459,-0.91 5.802,-2.252 1.262,-1.295 2.071,-2.968 2.163,-5.002 l 0.027,-0.589 -3.772,0 -0.015,0.55 c -0.026,0.973 -0.395,1.817 -0.971,2.465 -0.68,0.756 -1.834,1.299 -3.234,1.299 -1.225,0 -2.418,-0.486 -3.28,-1.371 -1.472,-1.524 -1.554,-4.014 -1.554,-6.178 0,-2.166 0.082,-4.654 1.554,-6.178 0.862,-0.886 2.055,-1.371 3.28,-1.371 1.386,0 2.574,0.59 3.263,1.354 0.567,0.641 0.946,1.568 0.971,2.553 l 0.014,0.55 3.771,0 -0.027,-0.591 C 45.536,3.033 44.733,1.301 43.466,0.002 m 157.783,14.566 -2.784,-8.195 5.591,0 -2.807,8.195 z m 5.681,-16.525 -1.658,4.799 -7.991,0 -1.628,-4.799 -3.608,0 -0.168,0 -3.875,0 -3.829,8.428 -4.669,0 0,-8.428 -3.674,0 0,21.387 8.508,0 c 2.478,0 4.302,-0.694 5.551,-1.975 1.063,-1.125 1.757,-2.58 1.757,-4.504 0,-1.924 -0.632,-3.262 -1.699,-4.39 -0.549,-0.575 -1.27,-1.03 -2.07,-1.36 l 4.073,-8.951 7.468,21.18 3.771,0 7.573,-21.387 -3.832,0 z m -22.592,17.912 -4.834,0 0,-5.982 4.834,0 c 2.23,0 3.549,0.843 3.549,2.978 0,2.137 -1.325,3.004 -3.549,3.004 M 163.854,-2.328 c -4.871,0 -7.966,3.01 -7.966,8.363 l 0,13.395 3.675,0 0,-13.451 c 0,-3.022 1.186,-4.805 4.291,-4.805 3.105,0 4.291,1.783 4.291,4.805 l 0,13.451 3.674,0 0,-13.395 c 0,-5.353 -3.096,-8.363 -7.965,-8.363 m -15.515,18.256 0,-17.885 -3.702,0 0,17.885 -6.029,0 0,3.502 15.759,0 0,-3.502 -6.028,0 z m -19.787,-17.885 0,21.387 3.674,0 0,-17.885 9.742,0 0,-3.502 -13.416,0 z m -11.977,-0.371 c -4.87,0 -7.965,3.01 -7.965,8.363 l 0,13.395 3.674,0 0,-13.451 c 0,-3.022 1.187,-4.805 4.291,-4.805 3.106,0 4.292,1.783 4.292,4.805 l 0,13.451 3.674,0 0,-13.395 c 0,-5.353 -3.096,-8.363 -7.966,-8.363 m -12.422,2.308 c -1.332,-1.33 -3.477,-2.337 -5.83,-2.337 -2.163,0 -4.309,0.791 -5.881,2.332 -2.381,2.318 -2.713,5.509 -2.713,8.748 0,3.236 0.332,6.425 2.713,8.746 1.572,1.541 3.718,2.332 5.881,2.332 2.339,0 4.46,-0.912 5.802,-2.254 1.263,-1.295 2.07,-2.969 2.163,-5 l 0.026,-0.592 -3.771,0 -0.015,0.551 c -0.024,0.974 -0.395,1.816 -0.969,2.467 -0.682,0.754 -1.835,1.297 -3.236,1.297 -1.224,0 -2.419,-0.485 -3.279,-1.372 -1.472,-1.521 -1.555,-4.011 -1.555,-6.175 0,-2.166 0.083,-4.657 1.555,-6.18 0.86,-0.885 2.055,-1.369 3.279,-1.369 1.387,0 2.574,0.59 3.264,1.353 0.566,0.641 0.945,1.567 0.97,2.553 l 0.014,0.551 3.772,0 -0.027,-0.592 c -0.091,-2.025 -0.895,-3.76 -2.163,-5.059 M 75.918,14.898 c -0.856,0.881 -2.048,1.342 -3.279,1.342 -1.233,0 -2.424,-0.461 -3.281,-1.342 -1.472,-1.523 -1.583,-4.019 -1.583,-6.175 0,-2.159 0.111,-4.655 1.583,-6.18 0.857,-0.879 2.048,-1.342 3.281,-1.342 1.231,0 2.423,0.463 3.279,1.342 1.474,1.525 1.583,4.021 1.583,6.18 0,2.156 -0.109,4.652 -1.583,6.175 M 78.49,-0.025 c -1.57,-1.541 -3.686,-2.332 -5.851,-2.332 -2.165,0 -4.282,0.791 -5.853,2.332 -2.377,2.314 -2.77,5.498 -2.77,8.748 0,3.246 0.393,6.429 2.77,8.746 1.571,1.541 3.688,2.332 5.853,2.332 2.165,0 4.281,-0.791 5.851,-2.332 2.378,-2.317 2.771,-5.5 2.771,-8.746 0,-3.25 -0.393,-6.434 -2.771,-8.748 m -23.929,14.593 -2.785,-8.195 5.59,0 -2.805,8.195 z m 5.679,-16.525 -1.657,4.799 -7.991,0 -1.628,-4.799 -3.776,0 7.541,21.387 3.772,0 7.571,-21.387 -3.832,0 z m -4.053,22.312 c -0.998,0 -1.728,0.338 -2.332,0.67 -0.237,0.133 -0.482,0.274 -0.74,0.379 -0.235,0.098 -0.453,0.151 -0.672,0.151 -0.578,0 -0.928,-0.192 -1.371,-0.633 l -0.415,-0.416 -1.865,2.008 0.345,0.384 c 0.776,0.866 1.775,1.733 3.336,1.733 0.958,0 1.67,-0.385 2.244,-0.699 0.265,-0.147 0.524,-0.295 0.794,-0.405 0.243,-0.099 0.469,-0.154 0.704,-0.154 0.546,0 1.029,0.272 1.376,0.666 l 0.425,0.481 1.792,-2.036 -0.291,-0.369 c -0.686,-0.873 -1.746,-1.76 -3.33,-1.76 M 19.57,14.568 16.786,6.373 l 5.591,0 -2.807,8.195 z m 5.68,-16.525 -1.656,4.799 -7.991,0 -1.629,-4.799 -3.777,0 7.542,21.387 3.772,0 7.571,-21.387 -3.832,0 z M 4.754,19.43 l 3.731,0 0,-21.387 -3.731,0 0,21.387 z m -26.692,-4.532 c -0.856,0.881 -2.047,1.342 -3.28,1.342 -1.232,0 -2.424,-0.461 -3.279,-1.342 -1.474,-1.523 -1.583,-4.019 -1.583,-6.175 0,-2.159 0.109,-4.655 1.583,-6.18 0.855,-0.879 2.047,-1.342 3.279,-1.342 1.232,0 2.424,0.463 3.28,1.342 1.473,1.525 1.583,4.021 1.583,6.18 0,2.156 -0.11,4.652 -1.583,6.175 m 2.573,-14.923 c -1.572,-1.541 -3.688,-2.332 -5.853,-2.332 -2.165,0 -4.281,0.791 -5.852,2.332 -2.377,2.314 -2.771,5.498 -2.771,8.748 0,3.246 0.394,6.429 2.771,8.746 1.571,1.541 3.687,2.332 5.852,2.332 2.165,0 4.281,-0.791 5.853,-2.332 2.377,-2.317 2.769,-5.5 2.769,-8.746 0,-3.25 -0.392,-6.434 -2.769,-8.748 m -18.167,-0.116 c -1.538,-1.505 -3.871,-2.187 -6.138,-2.187 -2.559,0 -4.683,0.717 -6.184,2.092 -1.385,1.293 -2.353,3.183 -2.353,5.271 l 0,0.567 3.789,0 0,-0.567 c 0,-1.021 0.52,-2.08 1.256,-2.793 0.761,-0.736 2.126,-1.097 3.492,-1.097 1.482,0 2.626,0.308 3.388,1.021 0.521,0.475 0.846,1.043 0.846,1.955 0,1.238 -0.738,2.361 -2.92,2.699 -1.115,0.17 -2.114,0.315 -3.2,0.485 -3.176,0.48 -5.879,2.308 -5.879,5.929 0,1.684 0.76,3.287 1.949,4.412 1.513,1.422 3.457,2.155 5.702,2.155 2.088,0 4.18,-0.694 5.647,-2.1 1.336,-1.273 2.056,-2.869 2.118,-4.732 l 0.02,-0.584 -3.776,0 -0.031,0.533 c -0.05,0.879 -0.376,1.645 -0.862,2.203 -0.64,0.734 -1.695,1.205 -3.145,1.205 -1.355,0 -2.429,-0.365 -3.173,-1.205 -0.439,-0.512 -0.69,-1.066 -0.69,-1.828 0,-1.393 1.118,-2.109 2.535,-2.297 1.149,-0.142 2.263,-0.344 3.383,-0.516 3.57,-0.513 6.111,-2.746 6.111,-6.3 0,-1.869 -0.799,-3.266 -1.885,-4.321 m -18.138,0 c -1.538,-1.505 -3.871,-2.187 -6.138,-2.187 -2.559,0 -4.682,0.717 -6.183,2.092 -1.386,1.293 -2.353,3.183 -2.353,5.271 l 0,0.567 3.788,0 0,-0.567 c 0,-1.021 0.52,-2.08 1.256,-2.793 0.761,-0.736 2.126,-1.097 3.492,-1.097 1.484,0 2.626,0.308 3.388,1.021 0.522,0.475 0.847,1.043 0.847,1.955 0,1.238 -0.738,2.361 -2.921,2.699 -1.114,0.17 -2.113,0.315 -3.199,0.485 -3.176,0.48 -5.879,2.308 -5.879,5.929 0,1.684 0.759,3.287 1.948,4.412 1.515,1.422 3.458,2.155 5.702,2.155 2.088,0 4.18,-0.694 5.648,-2.1 1.336,-1.273 2.055,-2.869 2.118,-4.732 l 0.019,-0.584 -3.776,0 -0.03,0.533 c -0.051,0.879 -0.376,1.645 -0.863,2.203 -0.639,0.734 -1.695,1.205 -3.144,1.205 -1.356,0 -2.43,-0.365 -3.174,-1.205 -0.439,-0.512 -0.689,-1.066 -0.689,-1.828 0,-1.393 1.118,-2.109 2.535,-2.297 1.148,-0.142 2.263,-0.344 3.382,-0.516 3.571,-0.513 6.111,-2.746 6.111,-6.3 0,-1.869 -0.799,-3.266 -1.885,-4.321 m -24.187,14.709 -2.785,-8.195 5.591,0 -2.806,8.195 z m 5.68,-16.525 -1.657,4.799 -7.991,0 -1.628,-4.799 -3.776,0 7.541,21.387 3.771,0 7.572,-21.387 -3.832,0 z m 46.276,232.685 -10.028,0 0,-11.607 9.768,0 c 3.871,0 7.558,1.392 7.558,5.512 0,4.458 -3.023,6.095 -7.298,6.095 m -0.26,18.59 -9.768,0 0,-10.437 9.963,0 c 3.66,0 6.388,1.282 6.388,5.153 0,3.933 -2.917,5.284 -6.583,5.284 m 12.305,-35.633 c -3.736,-2.853 -8.195,-3.237 -12.629,-3.237 l -18.898,0 0,47.219 18.898,0 c 3.743,0 7.712,-0.523 10.968,-2.627 3.548,-2.32 5.588,-6.34 5.588,-10.485 0,-3.585 -1.529,-7.648 -4.995,-9.746 3.925,-2.246 5.971,-6.23 5.971,-10.369 0,-4.206 -1.416,-8.089 -4.903,-10.755 m -53.892,17.043 -10.027,0 0,-11.607 9.767,0 c 3.871,0 7.559,1.392 7.559,5.512 0,4.458 -3.025,6.095 -7.299,6.095 m -0.26,18.59 -9.767,0 0,-10.437 9.962,0 c 3.661,0 6.388,1.282 6.388,5.153 0,3.933 -2.917,5.284 -6.583,5.284 m 12.305,-35.633 c -3.735,-2.853 -8.195,-3.237 -12.629,-3.237 l -18.897,0 0,47.219 18.897,0 c 3.743,0 7.712,-0.523 10.969,-2.627 3.548,-2.32 5.587,-6.34 5.587,-10.485 0,-3.585 -1.529,-7.648 -4.995,-9.746 3.924,-2.246 5.971,-6.23 5.971,-10.369 0,-4.206 -1.416,-8.089 -4.903,-10.755 M 98.255,140.696 c -3.66,-3.659 -9.231,-5.106 -14.961,-5.106 -4.964,0 -10.253,1.322 -14.161,4.892 -2.835,2.564 -4.996,6.611 -4.996,11.144 l 0,0.568 9.714,0 0,-0.568 c 0,-2.101 0.962,-3.978 2.239,-5.253 1.783,-1.784 4.703,-2.304 7.334,-2.304 3.15,0 5.998,0.647 7.584,2.294 0.979,1.039 1.664,2.01 1.664,4.028 0,2.966 -2.237,4.401 -4.996,4.902 -3.116,0.585 -7.144,0.714 -10.196,1.235 -6.56,1.071 -12.172,5.405 -12.172,13.429 0,3.824 1.712,7.017 4.197,9.503 3.183,3.114 8.409,5.039 13.919,5.039 5.044,0 10.008,-1.592 13.26,-4.64 2.809,-2.676 4.789,-6.193 4.857,-10.218 l 0.01,-0.577 -9.702,0 -0.022,0.545 c -0.058,1.467 -0.832,3.095 -1.858,4.182 -1.348,1.406 -4.224,2.293 -6.61,2.293 -2.55,0 -5.341,-0.576 -7.065,-2.358 -0.89,-0.95 -1.403,-1.982 -1.403,-3.51 0,-2.631 1.656,-4.021 4.203,-4.445 2.921,-0.454 7.01,-0.778 9.997,-1.168 7.077,-1.002 13.165,-5.655 13.165,-13.887 0,-4.447 -1.626,-7.644 -4.001,-10.02 m -70.124,-4.26 0,47.218 33.959,0 0,-8.739 -24.44,0 0,-9.591 21.515,0 0,-8.674 -21.515,0 0,-11.477 24.44,0 0,-8.737 -33.959,0 z M 4.74,135.59 c -12.245,0 -18.636,7.833 -18.636,19.091 l 0,28.973 9.518,0 0,-28.842 c 0,-6.365 2.839,-10.483 9.118,-10.483 6.281,0 9.119,4.118 9.119,10.483 l 0,28.842 9.519,0 0,-28.973 c 0,-11.258 -6.392,-19.091 -18.638,-19.091 m -52.515,0.846 0,47.218 9.519,0 0,-38.156 21.385,0 0,-9.062 -30.904,0 z m -21.973,20.278 -10.027,0 0,-11.605 9.767,0 c 3.871,0 7.559,1.392 7.559,5.512 0,4.457 -3.025,6.093 -7.299,6.093 m -0.26,18.591 -9.767,0 0,-10.436 9.962,0 c 3.661,0 6.388,1.281 6.388,5.152 0,3.934 -2.917,5.284 -6.583,5.284 m 12.305,-35.633 c -3.735,-2.854 -8.195,-3.236 -12.629,-3.236 l -18.897,0 0,47.218 18.897,0 c 3.743,0 7.712,-0.524 10.969,-2.627 3.548,-2.32 5.587,-6.34 5.587,-10.485 0,-3.585 -1.529,-7.648 -4.995,-9.746 3.924,-2.246 5.971,-6.23 5.971,-10.369 0,-4.206 -1.416,-8.088 -4.903,-10.755 m 253.823,-77.248 0,47.219 9.52,0 0,-38.157 20.251,0 0,-9.062 -29.771,0 z m -24.451,34.609 -5.774,-17.095 11.549,0 -5.775,17.095 z m 11.748,-34.609 -2.99,8.84 -17.517,0 -2.989,-8.84 -9.656,0 16.582,47.219 9.968,0 16.584,-47.219 -9.982,0 z m -42.001,0 -0.799,4.158 c -1.997,-2.514 -6.14,-4.945 -11.27,-5.004 -5.434,-0.066 -10.351,1.328 -14.132,5.311 -4.962,5.164 -6.136,11.519 -6.136,19.111 0,7.582 0.977,13.756 6.146,18.926 3.63,3.631 9.046,5.56 14.115,5.56 5.791,0 10.818,-2.129 14.056,-5.435 2.349,-2.416 4.115,-5.465 4.384,-9.655 l 0.039,-0.603 -9.712,0 -0.037,0.527 c -0.117,1.631 -0.919,2.743 -1.882,3.899 -1.482,1.719 -3.829,2.594 -6.914,2.594 -2.529,0 -5.428,-1.122 -7.128,-2.942 -3.005,-3.129 -3.418,-8.617 -3.418,-12.871 0,-4.25 0.476,-9.936 3.484,-13.064 1.684,-1.805 4.509,-2.748 7.062,-2.748 2.855,0 5.039,0.988 6.481,2.49 2.196,2.31 2.771,4.832 2.828,8.011 l -10.98,0 0,8.088 20.244,0 0,-26.353 -6.431,0 z M 86.058,61.578 c -12.245,0 -18.637,7.832 -18.637,19.092 l 0,20.039 -14.687,0 0,-38.285 -9.518,0 0,38.285 -13.651,0 0,8.934 37.856,0 6.676,0 2.842,0 0,-28.842 c 0,-6.365 2.839,-10.483 9.119,-10.483 6.28,0 9.119,4.118 9.119,10.483 l 0,28.842 9.518,0 0,-28.973 c 0,-11.26 -6.391,-19.092 -18.637,-19.092 m -74.245,39.584 -10.483,0 0,-12.644 10.612,0 c 4.483,0 6.908,2.263 6.908,6.257 0,3.379 -2.592,6.387 -7.037,6.387 m 6.52,-38.738 -7.671,17.42 -9.268,0 0,-17.42 -9.584,0 0,47.219 20.003,0 c 11.302,0 16.556,-7.151 16.556,-14.868 0,-6.164 -3.263,-11.127 -8.258,-13.244 l 8.567,-19.107 -10.345,0 z m -43.024,36.447 c -1.703,1.822 -4.345,2.877 -6.869,2.877 -2.523,0 -5.166,-1.055 -6.868,-2.877 -2.999,-3.121 -3.159,-8.586 -3.159,-12.871 0,-4.283 0.16,-9.684 3.159,-12.805 1.702,-1.824 4.345,-2.877 6.868,-2.877 2.524,0 5.166,1.053 6.869,2.877 2.999,3.121 3.159,8.522 3.159,12.805 0,4.285 -0.161,9.75 -3.159,12.871 m 6.792,-31.928 c -3.632,-3.63 -8.594,-5.365 -13.661,-5.365 -5.066,0 -10.028,1.735 -13.66,5.365 -5.175,5.174 -6.016,11.489 -6.016,19.057 0,7.568 0.84,13.947 6.016,19.121 3.632,3.633 8.594,5.365 13.66,5.365 5.067,0 10.029,-1.732 13.661,-5.365 5.175,-5.174 6.016,-11.553 6.016,-19.121 0,-7.568 -0.842,-13.883 -6.016,-19.057 m -53.018,34.219 -8.858,0 0,-13.75 8.858,0 c 5.29,0 7.558,2.748 7.558,6.844 0,4.099 -2.275,6.906 -7.558,6.906 m 0.324,-22.228 -9.182,0 0,-16.51 -9.454,0 0,47.219 18.636,0 c 10.877,0 16.817,-6.139 16.817,-15.323 0,-9.181 -5.936,-15.386 -16.817,-15.386 m 283.07,-80.891 0,21.387 3.673,0 0,-17.885 9.743,0 0,-3.502 -13.416,0 z"
             style="fill:#ffffff;fill-opacity:1;fill-rule:nonzero;stroke:none"
             id="path3046"
             inkscape:connector-curvature="0" /></g></g></g></g></svg>